<?xml version="1.0" encoding="UTF-8"?>
<svg height="16px" viewBox="0 0 16 16" width="16px" xmlns="http://www.w3.org/2000/svg">
    <g fill="#241f31">
        <path d="m 10.566406 6.539062 l -1.984375 3.472657 l 0.867188 0.496093 l 1.984375 -3.476562 z m 0 0"/>
        <path d="m 12.019531 2 c -1.644531 0 -3 1.355469 -3 3 s 1.355469 3 3 3 s 3 -1.355469 3 -3 s -1.355469 -3 -3 -3 z m 0 2 c 0.566407 0 1 0.4375 1 1 s -0.433593 1 -1 1 c -0.5625 0 -1 -0.4375 -1 -1 s 0.4375 -1 1 -1 z m 0 0"/>
        <path d="m 8.019531 9 c -1.644531 0 -3 1.355469 -3 3 s 1.355469 3 3 3 s 3 -1.355469 3 -3 s -1.355469 -3 -3 -3 z m 0 2 c 0.566407 0 1 0.4375 1 1 s -0.433593 1 -1 1 c -0.5625 0 -1 -0.4375 -1 -1 s 0.4375 -1 1 -1 z m 0 0"/>
        <path d="m 5.609375 6.773438 l -0.867187 0.496093 l 1.722656 3.019531 l 0.867187 -0.496093 z m 0 0"/>
        <path d="m 6.734375 4 v 1 h 3.222656 v -1 z m 0 0"/>
        <path d="m 3.757812 1.292969 l -3 3 c -0.390624 0.390625 -0.390624 1.023437 0 1.414062 l 3 3 c 0.390626 0.390625 1.023438 0.390625 1.414063 0 l 3 -3 c 0.390625 -0.390625 0.390625 -1.023437 0 -1.414062 l -3 -3 c -0.390625 -0.390625 -1.023437 -0.390625 -1.414063 0 z m 0.707032 2.121093 l 1.585937 1.585938 l -1.585937 1.585938 l -1.585938 -1.585938 z m 0 0"/>
    </g>
</svg>
