<?xml version="1.0" encoding="UTF-8"?>
<svg height="128px" viewBox="0 0 128 128" width="128px" xmlns="http://www.w3.org/2000/svg" xmlns:xlink="http://www.w3.org/1999/xlink">
    <linearGradient id="a" gradientUnits="userSpaceOnUse" x1="29" x2="71" y1="79" y2="79">
        <stop offset="0" stop-color="#a94f00"/>
        <stop offset="0.5" stop-color="#f06c00"/>
        <stop offset="1" stop-color="#a94f00"/>
    </linearGradient>
    <linearGradient id="b" gradientTransform="matrix(0.707107 0.707107 -0.707107 0.707107 -2 -172)" gradientUnits="userSpaceOnUse" x1="148.682343" x2="179.274353" y1="139.676376" y2="109.084351">
        <stop offset="0" stop-color="#273853"/>
        <stop offset="0.0608321" stop-color="#3f5985"/>
        <stop offset="0.407544" stop-color="#3f5985"/>
        <stop offset="0.5" stop-color="#5379ae"/>
        <stop offset="0.592456" stop-color="#3f5985"/>
        <stop offset="0.945744" stop-color="#3f5985"/>
        <stop offset="1" stop-color="#2d3e5b"/>
    </linearGradient>
    <linearGradient id="c" gradientUnits="userSpaceOnUse" x1="52" x2="94" y1="31" y2="31">
        <stop offset="0" stop-color="#195eb5"/>
        <stop offset="0.5" stop-color="#2176e2"/>
        <stop offset="1" stop-color="#195eb5"/>
    </linearGradient>
    <linearGradient id="d" gradientUnits="userSpaceOnUse" x1="68.123958" x2="83.329364" y1="99.781776" y2="99.781776">
        <stop offset="0" stop-color="#5276b2"/>
        <stop offset="0.5" stop-color="#a0a3a9"/>
        <stop offset="1" stop-color="#6571a9"/>
    </linearGradient>
    <linearGradient id="e" gradientTransform="matrix(0.866025 0.5 -0.5 0.866025 88.612447 -210.805032)" gradientUnits="userSpaceOnUse" x1="136" x2="152" y1="232" y2="232">
        <stop offset="0" stop-color="#7995c4"/>
        <stop offset="0.670664" stop-color="#c6c4ce"/>
        <stop offset="1" stop-color="#9ca6cb"/>
    </linearGradient>
    <linearGradient id="f" gradientTransform="matrix(0.707107 0.707107 -0.707107 0.707107 -2 -172)" gradientUnits="userSpaceOnUse" x1="176.374649" x2="147.48027" y1="136.776672" y2="107.882294">
        <stop offset="0" stop-color="#7995c4"/>
        <stop offset="0.670664" stop-color="#c4c5ce"/>
        <stop offset="1" stop-color="#9ca6cb"/>
    </linearGradient>
    <linearGradient id="g" gradientUnits="userSpaceOnUse" x1="66.932682" x2="76.235431" y1="101.740761" y2="111.122993">
        <stop offset="0" stop-color="#7995c4"/>
        <stop offset="0.670664" stop-color="#c7c4ce"/>
        <stop offset="1" stop-color="#9ca6cb"/>
    </linearGradient>
    <path d="m 65.449219 111.011719 l -39.449219 -82.011719 h 47 l -23 48" fill="none" stroke="#d6d6e2" stroke-linecap="round" stroke-linejoin="round" stroke-width="6"/>
    <path d="m 50 56 c 11.597656 0 21 9.402344 21 21 v 4 c 0 11.597656 -9.402344 21 -21 21 s -21 -9.402344 -21 -21 v -4 c 0 -11.597656 9.402344 -21 21 -21 z m 0 0" fill="url(#a)"/>
    <path d="m 26 11.515625 c -1.367188 0 -2.738281 0.523437 -3.785156 1.570313 l -15.777344 15.777343 c -0.023438 0.023438 -0.042969 0.050781 -0.0625 0.074219 h -1.507812 v 3.457031 h 0.007812 c -0.070312 1.453125 0.449219 2.929688 1.5625 4.042969 l 15.773438 15.777344 c 2.101562 2.097656 5.476562 2.097656 7.578124 0 l 15.773438 -15.777344 c 1.015625 -1.015625 1.539062 -2.335938 1.570312 -3.664062 l 0.003907 -0.082032 c 0 -0.027344 0 -0.054687 -0.003907 -0.078125 v -3.675781 h -1.507812 c -0.019531 -0.023438 -0.039062 -0.050781 -0.0625 -0.074219 l -15.777344 -15.777343 c -1.046875 -1.046876 -2.417968 -1.570313 -3.785156 -1.570313 z m 0 0" fill="url(#b)"/>
    <path d="m 73 8 c 11.597656 0 21 9.402344 21 21 v 4 c 0 11.597656 -9.402344 21 -21 21 s -21 -9.402344 -21 -21 v -4 c 0 -11.597656 9.402344 -21 21 -21 z m 0 0" fill="url(#c)"/>
    <path d="m 94 29 c 0 11.597656 -9.402344 21 -21 21 s -21 -9.402344 -21 -21 s 9.402344 -21 21 -21 s 21 9.402344 21 21 z m 0 0" fill="#62a0ea"/>
    <path d="m 71 77 c 0 11.597656 -9.402344 21 -21 21 s -21 -9.402344 -21 -21 s 9.402344 -21 21 -21 s 21 9.402344 21 21 z m 0 0" fill="#ffa348"/>
    <path d="m 69.472656 94.34375 l -1.082031 1.875 c -0.550781 0.957031 -0.222656 2.179688 0.734375 2.730469 l 10.390625 6 c 0.957031 0.554687 2.179687 0.226562 2.734375 -0.730469 l 1.078125 -1.875 z m 0 0" fill="url(#d)"/>
    <path d="m 124.183594 36.953125 l -0.808594 1.4375 l -2.757812 -1.550781 l -2.148438 3.808594 l 2.761719 1.554687 l -8.574219 15.226563 c -0.460938 0.816406 -0.171875 1.851562 0.644531 2.3125 l 0.105469 0.058593 c 0.816406 0.460938 1.851562 0.171875 2.3125 -0.648437 l 11.53125 -20.472656 c 0.457031 -0.816407 0.167969 -1.851563 -0.648438 -2.3125 l -0.105468 -0.058594 c -0.816406 -0.460938 -1.851563 -0.171875 -2.3125 0.644531 z m 0 0" fill="#a1aec4"/>
    <path d="m 115.855469 22.007812 l 6.929687 4 c 1.914063 1.105469 2.566406 3.550782 1.464844 5.464844 l -42 72.746094 l -13.859375 -8 l 42 -72.746094 c 1.105469 -1.914062 3.550781 -2.570312 5.464844 -1.464844 z m 0 0" fill="url(#e)"/>
    <path d="m 70.535156 112 c 0 1.109375 -0.902344 2.011719 -2.011718 2.011719 c -1.113282 0 -2.011719 -0.902344 -2.011719 -2.011719 c 0 -1.113281 0.898437 -2.011719 2.011719 -2.011719 c 1.109374 0 2.011718 0.898438 2.011718 2.011719 z m 0 0" fill="#a09fa9"/>
    <path d="m 29.789062 9.4375 l 15.773438 15.773438 c 2.097656 2.101562 2.097656 5.476562 0 7.574218 l -15.777344 15.777344 c -2.097656 2.097656 -5.472656 2.097656 -7.574218 0 l -15.773438 -15.773438 c -2.097656 -2.101562 -2.097656 -5.476562 0 -7.574218 l 15.777344 -15.777344 c 2.097656 -2.097656 5.472656 -2.097656 7.574218 0 z m 0 0" fill="url(#f)"/>
    <path d="m 69.125 98.949219 l -2.136719 10.433593 c -0.238281 1.171876 0.296875 2.363282 1.332031 2.960938 c 1.035157 0.597656 2.335938 0.464844 3.226563 -0.328125 l 7.96875 -7.066406 z m 0 0" fill="url(#g)"/>
    <path d="m 95.972656 80.445312 l -14.148437 -7.492187 l 3.148437 -5.453125 l 14.042969 7.675781 z m 0 0" fill="#637ca6" fill-opacity="0.509804"/>
    <path d="m 89.011719 92.503906 l -14.152344 -7.492187 l 3.148437 -5.449219 l 14.042969 7.671875 z m 0 0" fill="#637ca6" fill-opacity="0.509804"/>
    <path d="m 80 29 c 0 3.867188 -3.132812 7 -7 7 s -7 -3.132812 -7 -7 s 3.132812 -7 7 -7 s 7 3.132812 7 7 z m 0 0" fill="#2074de"/>
    <path d="m 57 77 c 0 3.867188 -3.132812 7 -7 7 s -7 -3.132812 -7 -7 s 3.132812 -7 7 -7 s 7 3.132812 7 7 z m 0 0" fill="#e76800"/>
</svg>
